Coordinates
version=1
nRows=17
nColumns=38
inDegrees=no

Units are S.I. units (second, meters, Newtons, ...)
If the header above contains a line with 'inDegrees', this indicates whether rotational values are in degrees (yes) or radians (no).

endheader
time	pelvis_tilt	pelvis_list	pelvis_rotation	pelvis_tx	pelvis_ty	pelvis_tz	hip_flexion_r	hip_adduction_r	hip_rotation_r	knee_angle_r	ankle_angle_r	subtalar_angle_r	mtp_angle_r	hip_flexion_l	hip_adduction_l	hip_rotation_l	knee_angle_l	ankle_angle_l	subtalar_angle_l	mtp_angle_l	lumbar_extension	lumbar_bending	lumbar_rotation	arm_flex_r	arm_add_r	arm_rot_r	elbow_flex_r	pro_sup_r	wrist_flex_r	wrist_dev_r	arm_flex_l	arm_add_l	arm_rot_l	elbow_flex_l	pro_sup_l	wrist_flex_l	wrist_dev_l
1.98	2.81947	1.39467	-1.21138	0.667415	1.43605	0.933937	0.230247	0.014518	0.0417805	0.0983394	-0.329336	0	0	-0.364567	-0.0453834	-0.205279	0.248879	-0.0206602	0	0	-0.400075	0.123656	0.0114662	-0.0676264	-0.675371	0.83539	0.856511	0.546259	0	0	-0.103523	-0.188998	0.172984	0.642661	1.33735	0	0
1.99	2.82437	1.39399	-1.2125	0.667983	1.44544	0.932828	0.220065	0.0165521	0.0351566	0.0693531	-0.332117	0	0	-0.373103	-0.0480986	-0.204656	0.255502	-0.0176356	0	0	-0.401006	0.124521	0.00886036	-0.0707204	-0.675649	0.831407	0.859102	0.546832	0	0	-0.104494	-0.189828	0.172879	0.644286	1.33769	0	0
2	2.82755	1.39304	-1.21216	0.66864	1.45491	0.931791	0.215339	0.0180794	0.0286467	0.0644599	-0.331594	0	0	-0.381311	-0.0513061	-0.203399	0.263247	-0.0152211	0	0	-0.402197	0.125587	0.00648742	-0.0731358	-0.675949	0.828805	0.861309	0.547373	0	0	-0.105646	-0.190695	0.172948	0.645897	1.33784	0	0
2.01	2.8266	1.39122	-1.20745	0.669361	1.46447	0.930932	0.21412	0.0208684	0.0226637	0.0790395	-0.328757	0	0	-0.389519	-0.055937	-0.201474	0.272368	-0.0126121	0	0	-0.404092	0.127731	0.00388077	-0.075043	-0.676165	0.826598	0.863321	0.548221	0	0	-0.107079	-0.191486	0.172827	0.647659	1.33758	0	0
2.02	2.82002	1.38919	-1.19762	0.670227	1.47412	0.930182	0.217273	0.0254587	0.0198876	0.113706	-0.319396	0	0	-0.396716	-0.061886	-0.200205	0.283614	-0.00933248	0	0	-0.406008	0.130766	0.00160355	-0.0766192	-0.676437	0.824462	0.865352	0.549986	0	0	-0.108918	-0.192217	0.172654	0.649568	1.33745	0	0
2.03	2.80893	1.38875	-1.18446	0.671356	1.484	0.929329	0.225396	0.0310682	0.0202188	0.163338	-0.299819	0	0	-0.401812	-0.0681362	-0.200055	0.295989	-0.00569269	0	0	-0.405621	0.13341	0.000292409	-0.0794193	-0.675644	0.820792	0.866621	0.552043	0	0	-0.111423	-0.192606	0.171416	0.65091	1.33783	0	0
2.04	2.79581	1.38968	-1.16936	0.672671	1.49423	0.928386	0.235449	0.037469	0.0203454	0.217976	-0.27959	0	0	-0.405418	-0.0744304	-0.199993	0.308516	-0.00408977	0	0	-0.402745	0.135632	-0.00108273	-0.0834469	-0.67349	0.816429	0.866573	0.553659	0	0	-0.114371	-0.192609	0.168706	0.651037	1.33759	0	0
2.05	2.78011	1.39208	-1.15107	0.674068	1.50483	0.927355	0.245333	0.044645	0.0190591	0.269024	-0.255734	0	0	-0.406951	-0.081169	-0.200085	0.322516	-0.00339787	0	0	-0.397116	0.137591	-0.00364707	-0.0876898	-0.670196	0.812771	0.864747	0.557515	0	0	-0.118303	-0.192603	0.165053	0.650337	1.33791	0	0
2.06	2.76478	1.39183	-1.13199	0.675344	1.51559	0.9267	0.247106	0.0531113	0.0165004	0.300302	-0.241336	0	0	-0.410998	-0.0892339	-0.19931	0.336352	-0.00513155	0	0	-0.393571	0.141103	-0.00693324	-0.0912952	-0.667809	0.810832	0.863199	0.561432	0	0	-0.121811	-0.192725	0.162771	0.64875	1.34006	0	0
2.07	2.74614	1.39097	-1.10872	0.676543	1.52651	0.926313	0.244365	0.0614269	0.0160409	0.311515	-0.237809	0	0	-0.414167	-0.0985832	-0.198075	0.352508	-0.00804003	0	0	-0.390036	0.145803	-0.0110765	-0.0950007	-0.664695	0.808291	0.860414	0.565376	0	0	-0.125118	-0.192082	0.159792	0.645158	1.34447	0	0
2.08	2.72496	1.38998	-1.083	0.677736	1.53761	0.926156	0.238336	0.0694888	0.0195192	0.306802	-0.253406	0	0	-0.415683	-0.108367	-0.197281	0.370891	-0.0128596	0	0	-0.386208	0.151108	-0.0151962	-0.0992644	-0.661227	0.804604	0.85716	0.568972	0	0	-0.128674	-0.19028	0.154441	0.641009	1.34841	0	0
2.09	2.70163	1.38956	-1.05483	0.679001	1.54908	0.926083	0.230038	0.0780161	0.0233287	0.294592	-0.288868	0	0	-0.414642	-0.119129	-0.197321	0.392616	-0.0200984	0	0	-0.380743	0.15653	-0.0200208	-0.104213	-0.657307	0.800386	0.853386	0.575311	0	0	-0.133624	-0.187571	0.145169	0.637175	1.35533	0	0
2.1	2.67709	1.3906	-1.02542	0.680403	1.56097	0.925932	0.222027	0.0863244	0.0263625	0.284719	-0.323277	0	0	-0.410565	-0.130079	-0.196751	0.417233	-0.0290755	0	0	-0.372558	0.160956	-0.025607	-0.109456	-0.652316	0.797296	0.848163	0.582103	0	0	-0.140374	-0.185133	0.134782	0.634126	1.36373	0	0
2.11	2.65009	1.39273	-0.993716	0.681887	1.57319	0.925717	0.215672	0.0940314	0.0278772	0.280804	-0.349165	0	0	-0.403244	-0.141258	-0.195508	0.445536	-0.0400937	0	0	-0.361956	0.164746	-0.0314206	-0.115285	-0.646369	0.79477	0.841382	0.588978	0	0	-0.147696	-0.18223	0.123218	0.629718	1.37371	0	0
2.12	2.62186	1.39451	-0.959964	0.68335	1.58541	0.925591	0.21072	0.101128	0.0292941	0.284088	-0.364942	0	0	-0.39271	-0.153365	-0.191283	0.479009	-0.0536542	0	0	-0.351105	0.168957	-0.0378412	-0.121321	-0.640325	0.792045	0.834444	0.594969	0	0	-0.154826	-0.179142	0.110899	0.624888	1.38473	0	0
2.13	2.59853	1.39261	-0.934989	0.685073	1.59712	0.925806	0.205475	0.109516	0.0364788	0.297149	-0.370326	0	0	-0.383559	-0.165198	-0.187615	0.516568	-0.0686511	0	0	-0.346113	0.173722	-0.0395269	-0.126331	-0.638025	0.790268	0.832233	0.598853	0	0	-0.161166	-0.177147	0.102195	0.623682	1.39191	0	0
2.14	2.55893	1.39203	-0.8927	0.686807	1.6092	0.926058	0.204088	0.118278	0.0384302	0.314393	-0.367153	0	0	-0.367377	-0.179762	-0.181248	0.561242	-0.0922074	0	0	-0.336786	0.180123	-0.043075	-0.130955	-0.633817	0.789257	0.826391	0.605587	0	0	-0.167726	-0.17254	0.0868595	0.618487	1.40564	0	0
